<?xml version="1.0" encoding="UTF-8"?>
<!-- Generator: visioncortex VTracer 0.6.4 -->
<svg version="1.1" xmlns="http://www.w3.org/2000/svg" width="388" height="388">
<path d="M0 0 C0.857 0.001 1.713 0.001 2.596 0.002 C16.761 0.043 30.315 1.016 44.125 4.375 C45.023 4.589 45.92 4.804 46.845 5.024 C72.199 11.257 96.426 22.429 117.125 38.375 C117.991 39.03 118.858 39.685 119.75 40.359 C142.148 57.732 160.189 79.146 173.125 104.375 C173.469 105.038 173.812 105.701 174.167 106.384 C182.869 123.363 188.833 141.584 192.125 160.375 C192.302 161.36 192.478 162.345 192.66 163.36 C194.279 173.338 194.524 183.161 194.5 193.25 C194.499 194.535 194.499 194.535 194.498 195.846 C194.457 210.011 193.484 223.565 190.125 237.375 C189.804 238.722 189.804 238.722 189.476 240.095 C183.243 265.449 172.071 289.676 156.125 310.375 C155.47 311.241 154.815 312.108 154.141 313 C136.768 335.398 115.354 353.439 90.125 366.375 C89.462 366.719 88.799 367.062 88.116 367.417 C71.137 376.119 52.916 382.083 34.125 385.375 C33.14 385.552 32.155 385.728 31.14 385.91 C21.162 387.529 11.339 387.774 1.25 387.75 C0.393 387.749 -0.463 387.749 -1.346 387.748 C-15.511 387.707 -29.065 386.734 -42.875 383.375 C-44.222 383.054 -44.222 383.054 -45.595 382.726 C-70.949 376.493 -95.176 365.321 -115.875 349.375 C-116.741 348.72 -117.608 348.065 -118.5 347.391 C-140.898 330.018 -158.939 308.604 -171.875 283.375 C-172.219 282.712 -172.562 282.049 -172.917 281.366 C-181.619 264.387 -187.583 246.166 -190.875 227.375 C-191.052 226.39 -191.228 225.405 -191.41 224.39 C-193.029 214.412 -193.274 204.589 -193.25 194.5 C-193.249 193.643 -193.249 192.787 -193.248 191.904 C-193.207 177.739 -192.234 164.185 -188.875 150.375 C-188.554 149.028 -188.554 149.028 -188.226 147.655 C-181.993 122.301 -170.821 98.074 -154.875 77.375 C-154.22 76.509 -153.565 75.642 -152.891 74.75 C-135.518 52.352 -114.104 34.311 -88.875 21.375 C-88.212 21.031 -87.549 20.688 -86.866 20.333 C-69.887 11.631 -51.666 5.667 -32.875 2.375 C-31.89 2.198 -30.905 2.022 -29.89 1.84 C-19.912 0.221 -10.089 -0.024 0 0 Z " fill="#1C96CF" transform="translate(193.875,0.625)"/>
<path d="M0 0 C2.539 2.237 5.011 4.53 7.469 6.855 C8.292 7.615 9.116 8.374 9.965 9.156 C25.49 23.955 35.471 42.788 42.469 62.855 C42.809 63.831 43.149 64.807 43.5 65.812 C53.555 98.542 47.076 136.089 31.469 165.855 C26.867 173.733 21.318 180.872 15.469 187.855 C14.882 188.566 14.296 189.276 13.691 190.008 C-6.076 213.361 -37.764 229.397 -68.156 232.605 C-70.28 232.721 -72.405 232.799 -74.531 232.855 C-75.318 232.881 -76.104 232.907 -76.915 232.934 C-89.479 233.304 -101.282 232.725 -113.531 229.855 C-114.515 229.631 -114.515 229.631 -115.519 229.401 C-138.814 223.972 -158.236 212.188 -175.531 195.855 C-176.332 195.131 -177.132 194.407 -177.957 193.66 C-194.396 178.192 -206.206 156.723 -211.531 134.855 C-211.709 134.222 -211.886 133.588 -212.069 132.935 C-219.555 106.162 -217.333 75.104 -205.531 49.855 C-205.254 49.243 -204.978 48.631 -204.692 48 C-198.122 33.562 -189.511 21.309 -178.531 9.855 C-177.775 9.036 -177.018 8.216 -176.238 7.371 C-130.347 -40.841 -50.078 -42.427 0 0 Z " fill="#0B5EA6" transform="translate(303.53125,93.14453125)"/>
<path d="M0 0 C0.857 0.001 1.713 0.001 2.596 0.002 C16.761 0.043 30.315 1.016 44.125 4.375 C45.023 4.589 45.92 4.804 46.845 5.024 C72.199 11.257 96.426 22.429 117.125 38.375 C117.991 39.03 118.858 39.685 119.75 40.359 C142.148 57.732 160.189 79.146 173.125 104.375 C173.469 105.038 173.812 105.701 174.167 106.384 C182.869 123.363 188.833 141.584 192.125 160.375 C192.302 161.36 192.478 162.345 192.66 163.36 C194.279 173.338 194.524 183.161 194.5 193.25 C194.499 194.535 194.499 194.535 194.498 195.846 C194.457 210.011 193.484 223.565 190.125 237.375 C189.804 238.722 189.804 238.722 189.476 240.095 C183.243 265.449 172.071 289.676 156.125 310.375 C155.47 311.241 154.815 312.108 154.141 313 C136.768 335.398 115.354 353.439 90.125 366.375 C89.462 366.719 88.799 367.062 88.116 367.417 C71.137 376.119 52.916 382.083 34.125 385.375 C33.14 385.552 32.155 385.728 31.14 385.91 C21.162 387.529 11.339 387.774 1.25 387.75 C0.393 387.749 -0.463 387.749 -1.346 387.748 C-15.511 387.707 -29.065 386.734 -42.875 383.375 C-44.222 383.054 -44.222 383.054 -45.595 382.726 C-70.949 376.493 -95.176 365.321 -115.875 349.375 C-116.741 348.72 -117.608 348.065 -118.5 347.391 C-140.898 330.018 -158.939 308.604 -171.875 283.375 C-172.219 282.712 -172.562 282.049 -172.917 281.366 C-181.619 264.387 -187.583 246.166 -190.875 227.375 C-191.052 226.39 -191.228 225.405 -191.41 224.39 C-193.029 214.412 -193.274 204.589 -193.25 194.5 C-193.249 193.643 -193.249 192.787 -193.248 191.904 C-193.207 177.739 -192.234 164.185 -188.875 150.375 C-188.554 149.028 -188.554 149.028 -188.226 147.655 C-181.993 122.301 -170.821 98.074 -154.875 77.375 C-154.22 76.509 -153.565 75.642 -152.891 74.75 C-135.518 52.352 -114.104 34.311 -88.875 21.375 C-88.212 21.031 -87.549 20.688 -86.866 20.333 C-69.887 11.631 -51.666 5.667 -32.875 2.375 C-31.89 2.198 -30.905 2.022 -29.89 1.84 C-19.912 0.221 -10.089 -0.024 0 0 Z M-26.752 30.837 C-28.712 31.334 -30.69 31.76 -32.668 32.18 C-50.66 36.3 -67.804 44.847 -82.875 55.375 C-83.938 56.115 -85.002 56.855 -86.098 57.617 C-93.534 63.01 -100.241 69.046 -106.875 75.375 C-107.668 76.115 -108.461 76.855 -109.277 77.617 C-137.055 104.272 -155.075 145.518 -156.211 183.863 C-156.241 186.471 -156.253 189.079 -156.25 191.688 C-156.25 192.375 -156.25 193.063 -156.249 193.771 C-156.104 241.728 -135.999 283.2 -102.496 316.758 C-69.027 348.358 -24.613 361.708 20.624 360.514 C65.304 358.738 105.358 336.48 135.688 304.688 C166.96 270.438 179.377 224.829 177.379 179.305 C175.871 156.004 168.345 133.716 157.125 113.375 C156.788 112.753 156.45 112.131 156.103 111.491 C140.473 82.969 115.894 60.185 87.125 45.375 C86.47 45.03 85.815 44.685 85.14 44.329 C61.352 31.905 36.357 27.152 9.75 27.062 C9.001 27.06 8.253 27.057 7.481 27.055 C-4.255 27.05 -15.336 27.917 -26.752 30.837 Z " fill="#89CFEB" transform="translate(193.875,0.625)"/>
<path d="M0 0 C15.441 13.455 26.362 33.445 28 54 C28.756 67.247 28.184 79.375 24 92 C23.7 92.918 23.399 93.836 23.09 94.781 C15.182 116.418 -1.57 133.77 -22.27 143.5 C-45.607 153.308 -69.805 153.648 -93.312 144.312 C-116.535 133.642 -131.284 115.463 -141.09 92.441 C-148.451 72.483 -146.629 47.748 -137.821 28.606 C-127.303 6.84 -109.805 -9.729 -87.012 -18.019 C-56.634 -28.537 -23.943 -20.753 0 0 Z " fill="#2D74B5" transform="translate(263,130)"/>
<path d="M0 0 C12.341 10.586 22.803 26.156 24.237 42.741 C24.833 55.986 24.704 67.823 19 80 C18.554 80.989 18.108 81.977 17.648 82.996 C14.174 89.993 9.485 95.487 4 101 C3.408 101.626 2.817 102.253 2.207 102.898 C-5.848 110.757 -19.677 118 -31 118 C-31 98.86 -31 79.72 -31 60 C-18.79 59.67 -6.58 59.34 6 59 C7.946 55.108 8.273 53.609 8.25 49.438 C8.255 48.487 8.26 47.537 8.266 46.559 C8.176 43.759 8.176 43.759 6 41 C3.17 40.662 0.548 40.511 -2.289 40.488 C-3.517 40.461 -3.517 40.461 -4.769 40.434 C-7.388 40.38 -10.006 40.346 -12.625 40.312 C-14.398 40.279 -16.172 40.245 -17.945 40.209 C-22.297 40.121 -26.648 40.061 -31 40 C-31.33 28.78 -31.66 17.56 -32 6 C-36.302 3.849 -39.404 3.7 -44.062 3.75 C-44.782 3.742 -45.502 3.735 -46.244 3.727 C-50.029 3.741 -51.779 3.852 -55 6 C-55.338 8.617 -55.489 11.009 -55.512 13.633 C-55.53 14.385 -55.548 15.136 -55.566 15.911 C-55.62 18.316 -55.654 20.72 -55.688 23.125 C-55.721 24.754 -55.755 26.383 -55.791 28.012 C-55.879 32.008 -55.939 36.003 -56 40 C-66.395 40.495 -66.395 40.495 -77 41 C-78.486 43.972 -78.132 46.696 -78.125 50 C-78.128 51.258 -78.13 52.516 -78.133 53.812 C-78.222 56.897 -78.222 56.897 -77 59 C-70.07 59.33 -63.14 59.66 -56 60 C-56 79.14 -56 98.28 -56 118 C-74.696 113.845 -88.489 104.607 -99.32 88.742 C-109.166 72.668 -111.844 53.072 -108 34.625 C-102.274 16.015 -89.788 1.83 -72.98 -7.715 C-48.95 -19.834 -21.371 -16.075 0 0 Z " fill="#FCFDFE" transform="translate(262,142)"/>
<path d="M0 0 C0.99 0.495 0.99 0.495 2 1 C1.201 1.522 0.402 2.044 -0.422 2.582 C-8.666 8.069 -15.873 14.141 -23 21 C-23.695 21.62 -24.39 22.24 -25.105 22.879 C-36.638 33.508 -44.67 47.822 -51 62 C-51.704 63.508 -51.704 63.508 -52.422 65.047 C-65.026 94.457 -64.828 130.159 -53.144 159.76 C-51.547 163.566 -49.804 167.289 -48 171 C-47.456 172.155 -46.912 173.31 -46.352 174.5 C-36.477 194.152 -20.981 210.552 -3 223 C-3.66 223.33 -4.32 223.66 -5 224 C-7.545 222.791 -9.939 221.528 -12.375 220.125 C-13.094 219.714 -13.813 219.304 -14.553 218.881 C-41.745 203.046 -63.593 177.836 -72.195 147.234 C-80.848 112.455 -77.437 80.233 -59.292 49.125 C-45.744 26.855 -24.35 9.195 0 0 Z " fill="#46A9D9" transform="translate(150,81)"/>
</svg>
